<svg xmlns="http://www.w3.org/2000/svg" fill="none" viewBox="0 0 196 32" aria-label="Raenest Logo" class="hidden md:block" width="171" height="28" data-sentry-element="Logo" data-sentry-source-file="AppLogo.tsx"><g fill="#4F3FD7" clip-path="url(#app-logo_icon_svg__a)"><path d="M57.982 12.726c-.82-.218-1.585-.326-2.624-.326-3.117 0-6.671 1.848-6.671 6.906v11.91H42.18V6.092h6.507l-.109 5.686c1.039-4.405 3.773-6.556 10.06-6.23zM79.579 24.146c0 1.795.765 2.339 1.859 2.339.602 0 1.039-.163 1.531-.38v4.785c-.93.544-2.132.762-3.663.762-3.117 0-5.085-1.197-5.741-3.97-1.203 3.1-4.046 4.187-7.382 4.187-4.483 0-7.49-2.556-7.49-6.852 0-5.602 4.483-8.701 14.38-8.158v-2.665c0-2.447-1.204-3.752-3.445-3.752-2.242 0-3.5 1.414-3.663 3.807l-6.398-1.142c.383-5.33 4.976-7.614 10.389-7.614 5.796 0 9.623 2.447 9.623 8.104zm-6.506-3.644c-5.687-.162-7.874 1.251-7.874 3.807 0 1.687 1.149 2.883 3.226 2.883s4.648-1.142 4.648-3.752zM99.699 23.222l5.576 1.795c-1.202 5.057-5.686 6.852-10.607 6.852-7.053 0-11.865-4.677-11.865-12.889s4.648-13.487 12.03-13.487c6.943 0 10.443 4.623 10.443 10.986 0 1.196-.109 2.392-.383 3.371H89.091c.164 4.188 2.133 7.016 5.796 7.016 2.242 0 3.937-.87 4.812-3.644m-.711-7.234c.054-.38.054-.598.054-.924 0-2.665-1.585-4.677-4.484-4.677s-4.92 2.175-5.303 5.601zM114.587 10.931c1.367-3.753 3.957-5.438 7.839-5.438s7.491 2.283 7.491 7.885v17.838h-6.507V15.662c0-2.882-.984-4.677-3.718-4.677s-5.085 1.414-5.085 6.2v14.031h-6.506V6.091h6.486zM149.254 23.222l5.577 1.795c-1.202 5.057-5.686 6.852-10.607 6.852-7.053 0-11.865-4.677-11.865-12.889s4.647-13.487 12.029-13.487c6.944 0 10.443 4.623 10.443 10.986 0 1.196-.109 2.392-.383 3.371h-15.802c.164 4.188 2.133 7.016 5.796 7.016 2.243 0 3.937-.87 4.812-3.644m-.711-7.234c.056-.38.056-.598.056-.924 0-2.665-1.586-4.677-4.484-4.677s-4.921 2.175-5.304 5.601h9.733zM161.445 23.44c.493 2.773 2.515 3.86 5.085 3.86 2.351 0 3.991-.815 3.991-2.556 0-1.631-.984-2.447-3.444-3.1l-3.719-.87c-4.482-1.087-6.451-3.534-6.451-7.341 0-6.091 4.975-7.94 10.061-7.94 5.741 0 9.241 2.067 9.677 6.961l-6.178.87c-.219-2.175-1.476-2.99-3.827-2.99-2.078 0-3.391.924-3.391 2.5 0 1.415.766 2.285 2.789 2.665l3.554.817c4.921 1.087 7.327 3.589 7.327 7.885 0 5.547-4.483 7.668-10.443 7.668s-9.624-1.74-10.498-6.417zM196 30.292c-1.969 1.033-4.429 1.577-7.217 1.577-4.867 0-7.983-2.338-7.983-7.777V11.148h-3.664V6.091h3.718V.761L187.361 0v6.091h7.49v5.057h-7.546v11.53c0 2.719 1.149 3.644 3.172 3.644 1.586 0 2.898-.49 4.374-1.47l1.148 5.44zM32.609 11.39c-.154.863-.38 1.744-.674 2.635a49 49 0 0 0-1.766 6.947c-.641 3.659-2.79 6.576-5.724 8.807-2.81 2.136-6.17 2.603-9.49 1.945a13 13 0 0 1-2.712-.855 3.91 3.91 0 0 1-2.059-2.117c-.265-.658-.954-3.097-1.136-3.725a.236.236 0 0 1 .3-.29l.11.033c4.338 1.185 11.02 1.07 16.258-3.464a26 26 0 0 0 3.423-3.572 4.14 4.14 0 0 0 .776-3.529 18.8 18.8 0 0 0-2.305-5.477c-1.552-2.502-3.572-4.497-5.814-5.908a4.12 4.12 0 0 0-4.478.077c-2.06 1.382-4.05 3.248-5.774 5.527-2.976 3.934-4.555 8.29-4.648 12.01h-.004c-.009.184-.145 3.263 1.001 7.052.057.188-.168.333-.315.204a42.5 42.5 0 0 1-4.493-4.642c-3.18-3.81-3.987-9.09-2.023-13.645C2.29 6.557 4.415 3.99 7.33 2.187 9.907.592 12.896.097 15.86.557c2.192.34 4.43.3 6.606-.136a15 15 0 0 1 2.081-.27h.007c.517-.029 1.025-.027 1.513.007h.003c2.238.154 4.154.963 5.462 2.473 1.878 2.165 2.153 5.357 1.076 8.76"></path></g><defs><clipPath id="app-logo_icon_svg__a"><path fill="#fff" d="M0 0h196v32H0z"></path></clipPath></defs></svg>